<mxfile host="app.diagrams.net" modified="2024-05-10T08:23:59.827Z" agent="Mozilla/5.0 (Windows NT 10.0; Win64; x64) AppleWebKit/537.36 (KHTML, like Gecko) Chrome/116.0.0.0 Safari/537.36" version="24.3.1" etag="NphZ2MsadQdbfsJuWmlu" type="github">
  <diagram name="第 1 页" id="A8frsr69SQwrQDMUSCOW">
    <mxGraphModel>
      <root>
        <mxCell id="0" />
        <mxCell id="1" parent="0" />
      </root>
    </mxGraphModel>
  </diagram>
</mxfile>
